<?xml version="1.0" encoding="utf-8"?>
<!-- Generator: Adobe Illustrator 27.8.1, SVG Export Plug-In . SVG Version: 6.00 Build 0)  -->
<svg version="1.1" id="Capa_1" xmlns="http://www.w3.org/2000/svg" xmlns:xlink="http://www.w3.org/1999/xlink" x="0px" y="0px"
	 viewBox="0 0 733 491" style="enable-background:new 0 0 733 491;" xml:space="preserve">
<style type="text/css">
	.st0{fill:#FFBC16;}
	.st1{fill:#FF9A16;}
	.st2{fill:#FDD0BB;}
	.st3{fill:#28394F;}
	.st4{fill:#844C36;}
	.st5{fill:#F93838;}
	.st6{fill:#39506E;}
	.st7{fill:#D0E4FC;}
</style>
<path id="XMLID_1380_" class="st0" d="M0,0.1V491h368.2l16.3-257L368.1,0H0V0.1z"/>
<path id="XMLID_1375_" class="st1" d="M368.2,0.1h368.2V491H368.2V0.1z"/>
<circle id="XMLID_1348_" class="st2" cx="180" cy="147.3" r="61.4"/>
<path id="XMLID_1347_" class="st3" d="M368.2,73.7h49.1v49.1h-49.1V73.7z"/>
<path id="XMLID_00000000907259849447315640000007709481216754547085_" class="st2" d="M155.5,122.8h49.1v49.1h-49.1V122.8z"/>
<path id="XMLID_00000139273707841721946760000002374016439664097722_" class="st4" d="M155.5,73.7h49.1v49.1h-49.1V73.7z"/>
<path id="XMLID_00000118357591790548389570000006290236442651575740_" class="st2" d="M204.5,122.8h49.1v49.1h-49.1V122.8z"/>
<path id="XMLID_00000070835303995458163830000012452030044764189824_" class="st4" d="M204.5,73.7h49.1v49.1h-49.1V73.7z"/>
<path id="XMLID_00000082364224492744444490000017284094872649845888_" class="st2" d="M106.4,122.8h49.1v49.1h-49.1V122.8z"/>
<path id="XMLID_00000148660784970950788220000012716587394906086536_" class="st4" d="M106.4,73.7h49.1v49.1h-49.1V73.7z"/>
<path id="XMLID_00000024710114064775174900000010650438145532848797_" class="st2" d="M155.5,171.9h49.1V221h-49.1V171.9z"/>
<path id="XMLID_00000031904768117910701220000002525918453261710775_" class="st2" d="M106.4,171.9h49.1V221h-49.1V171.9z"/>
<path id="XMLID_00000016071031651819110660000006099492039435353531_" class="st2" d="M204.5,171.9h49.1V221h-49.1V171.9z"/>
<path id="XMLID_00000073001248893790560060000015692179022185712265_" class="st5" d="M229.1,270h49.1v49.1h-49.1V270z"/>
<path id="XMLID_00000057847935644047122570000011954916944441973138_" class="st5" d="M81.8,270h49.1v49.1H81.8V270z"/>
<path id="XMLID_00000147202787020864301210000004863666314412142725_" class="st5" d="M94.9,220.9H144V270H94.9V220.9z"/>
<path id="XMLID_00000178191825267541696140000001376167741750950785_" class="st5" d="M130.9,270H180v49.1h-49.1V270z"/>
<path id="XMLID_00000161612691559106608420000003224093876405849022_" class="st5" d="M180,270h49.1v49.1H180V270z"/>
<path id="XMLID_00000154387532786128280250000015383262942082423680_" class="st5" d="M212.8,220.9h49.1V270h-49.1V220.9z"/>
<path id="XMLID_00000115496945409052566220000006306829417465049250_" class="st5" d="M130.9,220.9H180V270h-49.1V220.9z"/>
<path id="XMLID_00000088843843789516359450000009307634135269649853_" class="st5" d="M180,220.9h49.1V270H180V220.9z"/>
<path id="XMLID_1346_" class="st3" d="M417.3,122.8H468v49.1h-50.7V122.8z"/>
<path id="XMLID_1345_" class="st3" d="M466.3,73.7h49.1v49.1h-49.1L466.3,73.7L466.3,73.7z"/>
<path id="XMLID_1344_" class="st3" d="M564.5,171.9h-49.1l1.6-49.1h49.1L564.5,171.9z"/>
<path id="XMLID_1343_" class="st3" d="M564.5,73.7h49.1v49.1h-49.1V73.7z"/>
<path id="XMLID_1342_" class="st3" d="M613.6,122.8h49.1v49.1h-49.1V122.8z"/>
<path id="XMLID_1338_" class="st6" d="M81.8,368.2h196.3v49.1H81.8V368.2z"/>
<path id="XMLID_1336_" class="st7" d="M368.2,220.9h294.5v196.3H368.2V220.9z"/>
</svg>
