<svg id="Layer_1" enable-background="new 0 0 512 512" viewBox="0 0 512 512" xmlns="http://www.w3.org/2000/svg"><g id="_x31_1_woman_with_winter_outfit_00000154415542780654302330000011957007074131107229_"><g><path d="m451.76 301.18v210.82h-30.11l-30.12-15.06-30.12 15.06h-30.12l-75.293-15.06-75.287 15.06h-30.12l-30.12-15.06-30.12 15.06h-30.11v-210.82h30.11v-150.59h30.12v-30.12h30.12v-60.23h30.12v-30.12h30.11v-30.12h90.36v30.12h30.11v30.12h30.12v60.23h30.12v30.12h30.12v150.59z"/></g><g><g><path d="m331.29 180.71v60.23h-30.11v30.12h-90.36v-30.12h-30.11v-60.23l15.06-15.06 15.05 15.06 45.18 15.05 45.18-15.05 15.05-15.06z" fill="#ecd6af"/></g><g fill="#c8875b"><path d="m391.53 150.59v150.59h-30.12l-15.06-30.12 15.06-30.12v-90.35z"/><path d="m150.59 240.94 15.06 30.12-15.06 30.12h-30.12v-150.59h30.12z"/><path d="m331.29 120.47h30.12v30.12h-30.12z"/><path d="m150.59 120.47h30.12v30.12h-30.12z"/></g><g><path d="m361.41 391.53v90.35h-30.12v-90.35l-30.11-30.12h-90.36v-30.12l47.25-15.05 43.11 15.05h30.11v30.12z" fill="#8fe26a"/></g><g><path d="m331.29 90.35v30.12h-30.11v30.12h-90.36v-30.12h-30.11v-30.12l30.11-30.11 45.18-15.06 45.18 15.06z" fill="#ff9000"/></g><g fill="#3d99e1"><path d="m391.53 331.29v150.59l15.06 15.06 15.06-15.06v-150.59l-15.06-15.05z"/><path d="m301.18 391.53v90.35l-60.24 16.8-60.23-16.8v-30.12h-30.12v-60.23h-30.12v60.23h30.12v30.12l-30.12 15.06-30.12-15.06v-150.59l15.06-15.05 15.06 15.05 30.12 30.12h60.23v30.12z"/></g></g><g><g fill="#e0ba78"><path d="m301.18 150.59h30.11v30.12h-30.11z"/><path d="m271.06 180.71 15.055 15.055-15.055 15.055h-30.12l-15.06-15.055 15.06-15.055z"/><path d="m180.71 150.59h30.11v30.12h-30.11z"/></g><g fill="#5c371e"><path d="m271.06 180.71h30.12v30.11h-30.12z"/><path d="m210.82 180.71h30.12v30.11h-30.12z"/></g><g><path d="m210.82 30.12h90.36v30.12h-90.36z" fill="#ffd298"/></g><g fill="#8e4813"><path d="m180.71 271.06h30.11v30.12h-30.11v30.11h-30.12v-90.35h30.12z"/><path d="m361.41 240.94v90.35h-30.12v-30.11h-30.11v-30.12h30.11v-30.12z"/><path d="m301.18 60.24h30.11v30.11h-30.11z"/><path d="m210.82 90.35h90.36v30.12h-90.36z"/><path d="m180.71 60.24h30.11v30.11h-30.11z"/></g><g fill="#1c78be"><path d="m391.53 301.18h30.12v30.11h-30.12z"/><path d="m361.41 481.88h60.24v30.12h-60.24z"/><path d="m90.35 481.88h60.24v30.12h-60.24z"/><path d="m180.71 481.88h150.58v30.12h-150.58z"/><path d="m90.35 301.18h30.12v30.11h-30.12z"/><path d="m120.47 331.29h30.12v30.12h-30.12z"/></g><g><path d="m331.29 361.41 15.06 15.06-15.06 15.06h-30.11v-30.12z" fill="#2a5e12"/></g><g fill="#49a420"><path d="m331.29 361.41h30.12v30.12h-30.12z"/><path d="m210.82 301.18h90.36v30.11h-90.36z"/></g></g></g><g/><g/><g/><g/><g/><g/><g/><g/><g/><g/><g/><g/><g/><g/><g/></svg>